<svg width="26.000000" height="26.000000" viewBox="0 0 26 26" fill="none" xmlns="http://www.w3.org/2000/svg" xmlns:xlink="http://www.w3.org/1999/xlink">
	<desc>
			Created with Pixso.
	</desc>
	<defs/>
	<path id="Vector" d="M18.5342 1L7.46582 1C3.89453 1 1 3.89502 1 7.46582L1 18.5342C1 22.1055 3.89502 25 7.46655 25L18.5334 25C22.105 25 25 22.105 25 18.5334L25 7.46582C25 3.89453 22.105 1 18.5334 1L18.5342 1Z" fill="#FFFFFF" fill-opacity="0" fill-rule="nonzero"/>
	<path id="Vector" d="M7.46582 1C3.89453 1 1 3.89502 1 7.46582L1 18.5342C1 22.1055 3.89502 25 7.46655 25L18.5334 25C22.105 25 25 22.105 25 18.5334L25 7.46582C25 3.89453 22.105 1 18.5334 1L18.5342 1L7.46582 1Z" stroke="#FFFFFF" stroke-opacity="1.000000" stroke-width="2.000000"/>
	<path id="Vector" d="M13 18.7932C9.80054 18.7932 7.20679 16.1995 7.20679 13C7.20679 9.80054 9.80054 7.20679 13 7.20679C16.1995 7.20679 18.7932 9.80054 18.7932 13C18.7932 16.1995 16.1995 18.7932 13 18.7932Z" stroke="#FFFFFF" stroke-opacity="1.000000" stroke-width="2.000000"/>
	<path id="Vector" d="M21.2756 5.96558C21.2756 6.65112 20.72 7.20679 20.0344 7.20679C19.3489 7.20679 18.7932 6.65112 18.7932 5.96558C18.7932 5.28003 19.3489 4.72437 20.0344 4.72437C20.72 4.72437 21.2756 5.28003 21.2756 5.96558Z" fill="#FFFFFF" fill-opacity="1.000000" fill-rule="evenodd"/>
</svg>
