<svg width="40.000000" height="38.677979" viewBox="0 0 40 38.678" fill="none" xmlns="http://www.w3.org/2000/svg" xmlns:xlink="http://www.w3.org/1999/xlink">
	<desc>
			Created with Pixso.
	</desc>
	<defs/>
	<path id="Vector" d="M39.1904 33.9365L34.9553 33.9365C37.7664 30.2073 39.3147 25.5442 39.3147 20.8064C39.3147 9.33374 30.6501 0 19.9988 0C9.3479 0 0.682861 9.33423 0.682861 20.8064C0.682861 25.5449 2.23022 30.208 5.04102 33.9365L0.80957 33.9365C0.362793 33.9365 0 34.2991 0 34.7461L0 37.8684C0 38.3154 0.362793 38.678 0.80957 38.678L12.3662 38.678C12.8132 38.678 13.1758 38.3154 13.1758 37.8684L13.1758 34.3901C13.1758 34.1975 13.1074 34.0117 12.9829 33.8657L12.938 33.8125C12.8926 33.7588 12.8398 33.7114 12.782 33.6716C8.80469 30.9153 6.3335 25.9858 6.3335 20.8059C6.3335 12.449 12.4639 5.65039 19.9988 5.65039C27.5332 5.65039 33.6636 12.4492 33.6636 20.8059C33.6636 26.0076 31.177 30.9475 27.1755 33.6985C26.9556 33.8494 26.8245 34.0989 26.8245 34.365L26.8245 37.8677C26.8245 38.3145 27.1873 38.6772 27.634 38.6772L39.1904 38.6772C39.6372 38.6772 40 38.3145 40 37.8677L40 34.7451C40 34.2988 39.6382 33.9365 39.1904 33.9365Z" fill="#FFFFFF" fill-opacity="1.000000" fill-rule="nonzero"/>
</svg>
