<svg width="80.000000" height="64.000000" viewBox="0 0 80 64" fill="none" xmlns="http://www.w3.org/2000/svg" xmlns:xlink="http://www.w3.org/1999/xlink">
	<desc>
			Created with Pixso.
	</desc>
	<defs/>
	<path id="“" d="M22.0513 36.5714C26.1538 36.5714 29.4019 37.8546 31.7949 40.421C34.3589 42.827 35.6411 46.035 35.6411 50.0452C35.6411 54.376 34.1025 57.8246 31.0256 60.391C28.1196 62.797 24.1025 64 18.9744 64C12.9915 64 8.29053 61.8346 4.87183 57.5038C1.62402 53.173 0 46.9974 0 38.9774C0 31.7594 1.70947 25.1028 5.12817 19.0076C8.54712 12.7518 13.6753 6.49622 20.5129 0.240601C20.6838 0.0802002 20.9402 0 21.282 0C21.7949 0 22.2222 0.240601 22.5642 0.721802C22.906 1.203 22.906 1.604 22.5642 1.9248C14.188 9.94482 10 19.4086 10 30.3158C10 34.807 10.8547 38.0952 12.5642 40.1804C14.1025 37.7744 17.2649 36.5714 22.0513 36.5714ZM66.4102 36.5714C70.5129 36.5714 73.7607 37.8546 76.1538 40.421C78.718 42.827 80 46.035 80 50.0452C80 54.376 78.4614 57.8246 75.3845 60.391C72.4785 62.797 68.4617 64 63.3333 64C57.3503 64 52.6497 61.8346 49.2307 57.5038C45.9829 53.173 44.3589 46.9974 44.3589 38.9774C44.3589 31.7594 46.0684 25.1028 49.4873 19.0076C52.906 12.7518 58.0342 6.49622 64.8718 0.240601C65.0427 0.0802002 65.2991 0 65.6411 0C66.1538 0 66.5813 0.240601 66.9231 0.721802C67.2649 1.203 67.2649 1.604 66.9231 1.9248C58.5471 9.94482 54.3589 19.4086 54.3589 30.3158C54.3589 34.807 55.2136 38.0952 56.9231 40.1804C58.4617 37.7744 61.624 36.5714 66.4102 36.5714Z" fill="#FFFFFF" fill-opacity="1.000000" fill-rule="nonzero"/>
</svg>
